<?xml version="1.0" encoding="UTF-8" standalone="no"?>
<!-- Created with Inkscape (http://www.inkscape.org/) -->

<svg
   xmlns:rendltx="http://NOTSET"
   xmlns:dc="http://purl.org/dc/elements/1.1/"
   xmlns:cc="http://creativecommons.org/ns#"
   xmlns:rdf="http://www.w3.org/1999/02/22-rdf-syntax-ns#"
   xmlns:svg="http://www.w3.org/2000/svg"
   xmlns="http://www.w3.org/2000/svg"
   xmlns:xlink="http://www.w3.org/1999/xlink"
   xmlns:sodipodi="http://sodipodi.sourceforge.net/DTD/sodipodi-0.dtd"
   xmlns:inkscape="http://www.inkscape.org/namespaces/inkscape"
   width="100mm"
   height="40mm"
   viewBox="0 0 100 40"
   version="1.1"
   id="svg8"
   inkscape:version="0.92.2 (5c3e80d, 2017-08-06)"
   sodipodi:docname="novelMethodConstellation.svg">
  <sodipodi:namedview
     id="base"
     pagecolor="#ffffff"
     bordercolor="#000000"
     borderopacity="1"
     inkscape:pageopacity="0.0"
     inkscape:pageshadow="2"
     inkscape:zoom="0.7059368"
     inkscape:cx="35.192056"
     inkscape:cy="155.5592"
     inkscape:document-units="mm"
     inkscape:current-layer="ltx-render-layer"
     showgrid="true"
     showguides="false"
     inkscape:window-width="1429"
     inkscape:window-height="1008"
     inkscape:window-x="-7"
     inkscape:window-y="0"
     inkscape:window-maximized="0">
    <inkscape:grid
       originx="5.9999999"
       originy="7.4999999"
       empspacing="10"
       opacity="0.30980392"
       color="#3f3fff"
       empopacity="0.61176471"
       empcolor="#ed3f00"
       spacingy="0.99999998"
       spacingx="0.99999998"
       units="mm"
       id="grid815"
       type="xygrid" />
  </sodipodi:namedview>
  <defs
     id="defs2">
    <marker
       inkscape:isstock="true"
       style="overflow:visible;"
       id="marker1878"
       refX="0.0"
       refY="0.0"
       orient="auto"
       inkscape:stockid="Arrow1Mend">
      <path
         transform="scale(0.4) rotate(180) translate(10,0)"
         style="fill-rule:evenodd;stroke:#000000;stroke-width:1pt;stroke-opacity:1;fill:#000000;fill-opacity:1"
         d="M 0.0,0.0 L 5.0,-5.0 L -12.5,0.0 L 5.0,5.0 L 0.0,0.0 z "
         id="path1620" />
    </marker>
    <marker
       inkscape:isstock="true"
       style="overflow:visible"
       id="Arrow1Mstart"
       refX="0.0"
       refY="0.0"
       orient="auto"
       inkscape:stockid="Arrow1Mstart">
      <path
         transform="scale(0.4) translate(10,0)"
         style="fill-rule:evenodd;stroke:#000000;stroke-width:1pt;stroke-opacity:1;fill:#000000;fill-opacity:1"
         d="M 0.0,0.0 L 5.0,-5.0 L -12.5,0.0 L 5.0,5.0 L 0.0,0.0 z "
         id="path1617" />
    </marker>
    <marker
       inkscape:isstock="true"
       style="overflow:visible"
       id="Arrow1Sstart"
       refX="0.0"
       refY="0.0"
       orient="auto"
       inkscape:stockid="Arrow1Sstart">
      <path
         transform="scale(0.2) translate(6,0)"
         style="fill-rule:evenodd;stroke:#000000;stroke-width:1pt;stroke-opacity:1;fill:#000000;fill-opacity:1"
         d="M 0.0,0.0 L 5.0,-5.0 L -12.5,0.0 L 5.0,5.0 L 0.0,0.0 z "
         id="path1623" />
    </marker>
    <marker
       inkscape:isstock="true"
       style="overflow:visible"
       id="marker1903"
       refX="0"
       refY="0"
       orient="auto"
       inkscape:stockid="Arrow1Mend">
      <path
         inkscape:connector-curvature="0"
         transform="matrix(-0.4,0,0,-0.4,-4,0)"
         style="fill:#000000;fill-opacity:1;fill-rule:evenodd;stroke:#000000;stroke-width:1.00000003pt;stroke-opacity:1"
         d="M 0,0 5,-5 -12.5,0 5,5 Z"
         id="path1901" />
    </marker>
    <marker
       inkscape:stockid="Arrow1Mend"
       orient="auto"
       refY="0"
       refX="0"
       id="marker1761"
       style="overflow:visible"
       inkscape:isstock="true">
      <path
         inkscape:connector-curvature="0"
         id="path1759"
         d="M 0,0 5,-5 -12.5,0 5,5 Z"
         style="fill:#000000;fill-opacity:1;fill-rule:evenodd;stroke:#000000;stroke-width:1.00000003pt;stroke-opacity:1"
         transform="matrix(-0.4,0,0,-0.4,-4,0)" />
    </marker>
    <marker
       inkscape:stockid="Arrow1Mend"
       orient="auto"
       refY="0"
       refX="0"
       id="marker4017"
       style="overflow:visible"
       inkscape:isstock="true">
      <path
         inkscape:connector-curvature="0"
         id="path4015"
         d="M 0,0 5,-5 -12.5,0 5,5 Z"
         style="fill:#000000;fill-opacity:1;fill-rule:evenodd;stroke:#000000;stroke-width:1.00000003pt;stroke-opacity:1"
         transform="matrix(-0.4,0,0,-0.4,-4,0)" />
    </marker>
    <marker
       inkscape:stockid="Arrow1Mend"
       orient="auto"
       refY="0"
       refX="0"
       id="marker1529"
       style="overflow:visible"
       inkscape:isstock="true">
      <path
         id="path1527"
         d="M 0,0 5,-5 -12.5,0 5,5 Z"
         style="fill:#000000;fill-opacity:1;fill-rule:evenodd;stroke:#000000;stroke-width:1.00000003pt;stroke-opacity:1"
         transform="matrix(-0.4,0,0,-0.4,-4,0)"
         inkscape:connector-curvature="0" />
    </marker>
    <marker
       inkscape:stockid="Arrow1Mend"
       orient="auto"
       refY="0"
       refX="0"
       id="marker1111"
       style="overflow:visible"
       inkscape:isstock="true"
       inkscape:collect="always">
      <path
         id="path1109"
         d="M 0,0 5,-5 -12.5,0 5,5 Z"
         style="fill:#000000;fill-opacity:1;fill-rule:evenodd;stroke:#000000;stroke-width:1.00000003pt;stroke-opacity:1"
         transform="matrix(-0.4,0,0,-0.4,-4,0)"
         inkscape:connector-curvature="0" />
    </marker>
    <marker
       inkscape:isstock="true"
       style="overflow:visible"
       id="Arrow1Mend"
       refX="0"
       refY="0"
       orient="auto"
       inkscape:stockid="Arrow1Mend"
       inkscape:collect="always">
      <path
         transform="matrix(-0.4,0,0,-0.4,-4,0)"
         style="fill:#000000;fill-opacity:1;fill-rule:evenodd;stroke:#000000;stroke-width:1.00000003pt;stroke-opacity:1"
         d="M 0,0 5,-5 -12.5,0 5,5 Z"
         id="path828"
         inkscape:connector-curvature="0" />
    </marker>
  </defs>
  <metadata
     id="metadata5">
    <rdf:RDF>
      <cc:Work
         rdf:about="">
        <dc:format>image/svg+xml</dc:format>
        <dc:type
           rdf:resource="http://purl.org/dc/dcmitype/StillImage" />
        <dc:title></dc:title>
      </cc:Work>
    </rdf:RDF>
  </metadata>
  <g
     transform="translate(0,-257)"
     id="layer1"
     inkscape:groupmode="layer"
     inkscape:label="Layer 1">
    <path
       style="fill:none;stroke:#000000;stroke-width:0.26458332px;stroke-linecap:butt;stroke-linejoin:miter;stroke-opacity:1"
       d="M 3.909955,258.47795 Z"
       id="path4149"
       inkscape:connector-curvature="0" />
    <text
       xml:space="preserve"
       style="font-style:normal;font-weight:normal;font-size:10.58333302px;line-height:1.25;font-family:sans-serif;letter-spacing:0px;word-spacing:0px;fill:#000000;fill-opacity:1;stroke:none;stroke-width:0.26458332"
       x="77.569878"
       y="337.19116"
       id="text1015"><tspan
         sodipodi:role="line"
         x="77.569878"
         y="337.19116"
         style="stroke-width:0.26458332"
         id="tspan1017">Re[$y(n)$]</tspan></text>
    <text
       xml:space="preserve"
       style="font-style:normal;font-weight:normal;font-size:10.58333302px;line-height:1.25;font-family:sans-serif;letter-spacing:0px;word-spacing:0px;fill:#000000;fill-opacity:1;stroke:none;stroke-width:0.26458332"
       x="78.286278"
       y="323.44794"
       id="text1023"><tspan
         sodipodi:role="line"
         id="tspan1021"
         x="78.286278"
         y="323.44794"
         style="stroke-width:0.26458332">Im[$y(n)$]</tspan></text>
    <text
       id="text1336"
       y="359.099"
       x="61.768097"
       style="font-style:normal;font-weight:normal;font-size:10.58333302px;line-height:1.25;font-family:sans-serif;letter-spacing:0px;word-spacing:0px;fill:#000000;fill-opacity:1;stroke:none;stroke-width:0.26458332"
       xml:space="preserve"><tspan
         style="stroke-width:0.26458332"
         y="359.099"
         x="61.768097"
         id="tspan1334"
         sodipodi:role="line">Pilot Signal</tspan></text>
    <text
       xml:space="preserve"
       style="font-style:normal;font-weight:normal;font-size:10.58333302px;line-height:1.25;font-family:sans-serif;letter-spacing:0px;word-spacing:0px;fill:#000000;fill-opacity:1;stroke:none;stroke-width:0.26458332"
       x="58.961769"
       y="372.38229"
       id="text1340"><tspan
         sodipodi:role="line"
         id="tspan1338"
         x="58.961769"
         y="372.38229"
         style="stroke-width:0.26458332">Quantum Signal</tspan></text>
    <text
       xml:space="preserve"
       style="font-style:normal;font-weight:normal;font-size:10.58333302px;line-height:1.25;font-family:sans-serif;letter-spacing:0px;word-spacing:0px;fill:#000000;fill-opacity:1;stroke:none;stroke-width:0.26458332"
       x="114.40832"
       y="298.78741"
       id="text3693"><tspan
         sodipodi:role="line"
         id="tspan3691"
         x="114.40832"
         y="298.78741"
         style="stroke-width:0.26458332">$t$ [s]</tspan></text>
    <text
       id="text3697"
       y="343.1701"
       x="-42.096508"
       style="font-style:normal;font-weight:normal;font-size:10.58333302px;line-height:1.25;font-family:sans-serif;letter-spacing:0px;word-spacing:0px;fill:#000000;fill-opacity:1;stroke:none;stroke-width:0.26458332"
       xml:space="preserve"><tspan
         style="stroke-width:0.26458332"
         y="343.1701"
         x="-42.096508"
         id="tspan3695"
         sodipodi:role="line">$y(t)$ [W]</tspan></text>
    <text
       xml:space="preserve"
       style="font-style:normal;font-weight:normal;font-size:10.58333302px;line-height:1.25;font-family:sans-serif;letter-spacing:0px;word-spacing:0px;fill:#000000;fill-opacity:1;stroke:none;stroke-width:0.26458332"
       x="142.5"
       y="342"
       id="text1033"><tspan
         sodipodi:role="line"
         id="tspan1031"
         x="142.5"
         y="351.36377"
         style="stroke-width:0.26458332" /></text>
    <text
       id="text1050"
       y="313.11209"
       x="12.560858"
       style="font-style:normal;font-weight:normal;font-size:10.58333302px;line-height:1.25;font-family:sans-serif;letter-spacing:0px;word-spacing:0px;fill:#000000;fill-opacity:1;stroke:none;stroke-width:0.26458332"
       xml:space="preserve"><tspan
         style="stroke-width:0.26458332"
         y="313.11209"
         x="12.560858"
         id="tspan1048"
         sodipodi:role="line">$T_s$</tspan></text>
    <path
       inkscape:connector-curvature="0"
       id="path1609"
       d="m 11.4,292.50001 h 9.2"
       style="fill:none;stroke:#000000;stroke-width:0.2;stroke-linecap:butt;stroke-linejoin:miter;stroke-miterlimit:4;stroke-dasharray:none;stroke-opacity:1;marker-start:url(#Arrow1Mstart);marker-end:url(#marker1878)" />
  </g>
  <g
     rendltx:math="False"
     rendltx:newline="False"
     rendltx:fontsize="10"
     rendltx:depth="0"
     rendltx:scale="1.0"
     rendltx:preamble="C:\Users\danielfpereira\Dropbox\University\CV-Quantum\diagrams\FiguresForPaper\preamble.tex"
     id="ltx-render-layer"
     inkscape:groupmode="layer"
     inkscape:label="Rendered Latex"
     transform="translate(0,-20)">
    <path
       inkscape:connector-curvature="0"
       style="fill:none;stroke:#5a64ff;stroke-width:0.4000003;stroke-linecap:round;stroke-linejoin:round;stroke-miterlimit:4;stroke-dasharray:none;stroke-opacity:1;paint-order:markers fill stroke"
       d="m 16.000005,52.5 c 0.114941,0 0.229883,0 0.344831,0 0.11494,0 0.229877,0 0.344825,0 0.11494,0 0.229883,0 0.344825,0 0.11494,0 0.229889,0 0.34483,0 0.114941,0 0.229884,0 0.34483,-5e-4 0.114942,-5e-4 0.229879,-5e-4 0.344825,-0.005 0.114942,-0.002 0.229885,-0.006 0.344825,-0.0199 0.114942,-0.0103 0.22989,-0.0303 0.344831,-0.0692 0.114942,-0.0384 0.229884,-0.0824 0.344831,-0.16488 0.114941,-0.0825 0.229883,-0.24736 0.344825,-0.49466 0.114941,-0.24733 0.229883,-0.49468 0.34483,-0.83269 0.114941,-0.32975 0.229884,-0.74199 0.344825,-1.1954 0.114941,-0.4122 0.229884,-0.88214 0.344831,-1.26136 0.11494,-0.41223 0.229883,-0.65955 0.344825,-0.83269 0.11494,-0.16488 0.229884,-0.16488 0.34483,0 0.11494,0.16488 0.229884,0.49467 0.34483,0.83269 0.114935,0.4122 0.229879,0.83267 0.344825,1.26136 0.114941,0.41222 0.229885,0.84916 0.344825,1.1954 0.114941,0.32979 0.229885,0.65953 0.34483,0.83269 0.114941,0.2473 0.229885,0.32975 0.344831,0.49466 0.11494,0.0824 0.229879,0.16488 0.344825,0.16488 0.11494,0.039 0.229884,0.0577 0.344825,0.0692 0.11494,0.0106 0.229884,0.016 0.34483,0.0199 0.11494,10e-4 0.229884,10e-4 0.344825,0.005 0.11494,0 0.229884,5e-4 0.34483,5e-4 0.114941,0 0.229885,0 0.34483,0 0.114941,0 0.22988,0 0.344825,0 0.114941,0 0.229885,0 0.344825,0 0.114941,0 0.22989,0 0.344831,0"
       title="t exp(-pow(-t,2)/2)/4"
       id="path1874" />
    <path
       id="path3391"
       title="t exp(-pow(-t,2)/2)/4"
       d="m 36.000009,52.5 c 0.114941,0 0.229879,0 0.34483,0 0.114942,0 0.229879,0 0.34482,0 0.114941,0 0.22989,0 0.34483,0 0.114942,0 0.22989,0 0.344831,0 0.114942,0 0.229879,0 0.344831,-5e-4 0.114941,-5e-4 0.229878,-5e-4 0.344819,-0.005 0.114942,-0.002 0.229889,-0.006 0.344831,-0.0199 0.114941,-0.0103 0.229889,-0.0303 0.344831,-0.0692 0.11494,-0.0384 0.229877,-0.0824 0.34483,-0.16488 0.114941,-0.0825 0.229878,-0.24736 0.34482,-0.49466 0.114947,-0.24733 0.229889,-0.49468 0.34483,-0.83269 0.114948,-0.32975 0.229889,-0.74199 0.34483,-1.1954 0.114941,-0.4122 0.229879,-0.88214 0.34483,-1.26136 0.114941,-0.41223 0.229879,-0.65955 0.344831,-0.83269 0.114941,-0.16488 0.229877,-0.16488 0.344827,0 0.11494,0.16488 0.22988,0.49467 0.34483,0.83269 0.11493,0.4122 0.22987,0.83267 0.34482,1.26136 0.11494,0.41222 0.22989,0.84916 0.34483,1.1954 0.11494,0.32979 0.22988,0.65953 0.34483,0.83269 0.11494,0.2473 0.22988,0.32975 0.34483,0.49466 0.11494,0.0824 0.22988,0.16488 0.34482,0.16488 0.11494,0.039 0.22989,0.0577 0.34483,0.0692 0.11494,0.0106 0.22988,0.016 0.34483,0.0199 0.11494,10e-4 0.22988,10e-4 0.34482,0.005 0.11494,0 0.22989,5e-4 0.34483,5e-4 0.11494,0 0.22989,0 0.34483,0 0.11494,0 0.22988,0 0.34483,0 0.11494,0 0.22988,0 0.34482,0 0.11494,0 0.22989,0 0.34483,0"
       style="fill:none;stroke:#5a64ff;stroke-width:0.4000003;stroke-linecap:round;stroke-linejoin:round;stroke-miterlimit:4;stroke-dasharray:none;stroke-opacity:1;paint-order:markers fill stroke"
       inkscape:connector-curvature="0" />
    <g
       id="g4342">
      <path
         inkscape:connector-curvature="0"
         style="fill:none;stroke:#ff0032;stroke-width:0.4000003;stroke-linecap:round;stroke-linejoin:round;stroke-miterlimit:4;stroke-dasharray:none;stroke-opacity:1;paint-order:markers fill stroke"
         d="m 6.000005,52.5 c 0.11494,0 0.229881,0 0.344831,0 0.114939,0 0.22988,0 0.344819,0 0.11494,0 0.229889,0 0.344831,0 0.114939,0 0.229889,0 0.344831,0 0.114938,0 0.229889,0 0.34483,-0.002 0.114939,-0.002 0.22988,-0.003 0.34482,-0.025 0.114939,-0.007 0.229889,-0.0307 0.34483,-0.0996 0.114939,-0.0514 0.229889,-0.15152 0.34483,-0.34621 0.11494,-0.19211 0.22989,-0.41222 0.344831,-0.82441 0.114939,-0.4123 0.22988,-1.2368 0.34483,-2.47335 0.114931,-1.23666 0.229881,-2.47347 0.34482,-4.16353 0.114939,-1.64877 0.229889,-3.70999 0.34483,-5.97712 0.114939,-2.06106 0.229889,-4.4108 0.344831,-6.3069 0.11493,-2.06121 0.229889,-3.29782 0.34483,-4.16354 0.11494,-0.8244 0.229881,-0.8244 0.34482,0 0.114939,0.82441 0.229889,2.47337 0.34483,4.16354 0.11494,2.06101 0.22989,4.16341 0.344831,6.3069 0.11493,2.06118 0.22988,4.24587 0.34483,5.97712 0.114939,1.649 0.22988,3.29772 0.34482,4.16353 0.114939,1.23655 0.22989,1.64877 0.344829,2.47335 0.114941,0.41219 0.229889,0.82441 0.344831,0.82441 0.11494,0.1951 0.229879,0.28852 0.34483,0.34621 0.11493,0.0531 0.229878,0.0799 0.34482,0.0996 0.11494,0.007 0.229889,0.007 0.34483,0.025 0.114941,0 0.22989,0.002 0.34483,0.002 0.114941,0 0.229879,0 0.344831,0 0.11493,0 0.229879,0 0.344819,0 0.114941,0 0.22989,0 0.344831,0 0.114941,0 0.229889,0 0.34483,0"
         title="t exp(-pow(-t,2)/2)/4"
         id="path1714" />
      <path
         inkscape:connector-curvature="0"
         style="fill:none;stroke:#ff0032;stroke-width:0.4000003;stroke-linecap:round;stroke-linejoin:round;stroke-miterlimit:4;stroke-dasharray:none;stroke-opacity:1;paint-order:markers fill stroke"
         d="m 46.00001,52.5 c 0.11494,0 0.22988,0 0.34483,0 0.11494,0 0.22988,0 0.34482,0 0.11494,0 0.22989,0 0.34483,0 0.11494,0 0.22989,0 0.34483,0 0.11494,0 0.22989,0 0.34483,-0.002 0.11494,-0.002 0.22988,-0.003 0.34482,-0.025 0.11494,-0.007 0.22989,-0.0307 0.34483,-0.0996 0.11494,-0.0514 0.22989,-0.15152 0.34483,-0.34621 0.11494,-0.19211 0.22989,-0.41222 0.34483,-0.82441 0.11494,-0.4123 0.22988,-1.2368 0.34483,-2.47335 0.11493,-1.23666 0.22988,-2.47347 0.34482,-4.16353 0.11494,-1.64877 0.22989,-3.70999 0.34483,-5.97712 0.11494,-2.06106 0.22989,-4.4108 0.34483,-6.3069 0.11493,-2.06121 0.22989,-3.29782 0.34483,-4.16354 0.11494,-0.8244 0.22988,-0.8244 0.34482,0 0.11494,0.82441 0.22989,2.47337 0.34483,4.16354 0.11494,2.06101 0.22989,4.16341 0.34483,6.3069 0.11493,2.06118 0.22988,4.24587 0.34483,5.97712 0.11494,1.649 0.22988,3.29772 0.34482,4.16353 0.11494,1.23655 0.22989,1.64877 0.34483,2.47335 0.11494,0.41219 0.22989,0.82441 0.34483,0.82441 0.11494,0.1951 0.22988,0.28852 0.34483,0.34621 0.11493,0.0531 0.22988,0.0799 0.34482,0.0996 0.11494,0.007 0.22989,0.007 0.34483,0.025 0.11494,0 0.22989,0.002 0.34483,0.002 0.11494,0 0.22988,0 0.34483,0 0.11493,0 0.22988,0 0.34482,0 0.11494,0 0.22989,0 0.34483,0 0.11494,0 0.22989,0 0.34483,0"
         title="t exp(-pow(-t,2)/2)/4"
         id="path3393" />
    </g>
    <path
       inkscape:connector-curvature="0"
       style="fill:none;stroke:#5a64ff;stroke-width:0.4000003;stroke-linecap:round;stroke-linejoin:round;stroke-miterlimit:4;stroke-dasharray:none;stroke-opacity:1;paint-order:markers fill stroke"
       d="m 26.00001,52.5 c 0.11494,0 0.22988,0 0.34483,0 0.11494,0 0.22988,0 0.34482,0 0.11494,0 0.22989,0 0.34483,0 0.11494,0 0.22989,0 0.34483,0 0.11494,0 0.22988,0 0.34483,-5e-4 0.11494,-5e-4 0.22988,-5e-4 0.34482,-0.005 0.11494,-0.002 0.22989,-0.006 0.34483,-0.0199 0.11494,-0.0103 0.22989,-0.0303 0.34483,-0.0692 0.11494,-0.0384 0.22988,-0.0824 0.34483,-0.16488 0.11494,-0.0825 0.22988,-0.24736 0.34482,-0.49466 0.11495,-0.24733 0.22989,-0.49468 0.34483,-0.83269 0.11495,-0.32975 0.22989,-0.74199 0.34483,-1.1954 0.11494,-0.4122 0.22988,-0.88214 0.34483,-1.26136 0.11494,-0.41223 0.22988,-0.65955 0.34483,-0.83269 0.11494,-0.16488 0.22988,-0.16488 0.34483,0 0.11494,0.16488 0.22988,0.49467 0.34483,0.83269 0.11493,0.4122 0.22987,0.83267 0.34482,1.26136 0.11494,0.41222 0.22989,0.84916 0.34483,1.1954 0.11494,0.32979 0.22988,0.65953 0.34483,0.83269 0.11494,0.2473 0.22988,0.32975 0.34483,0.49466 0.11494,0.0824 0.22988,0.16488 0.34482,0.16488 0.11494,0.039 0.22989,0.0577 0.34483,0.0692 0.11494,0.0106 0.22988,0.016 0.34483,0.0199 0.11494,10e-4 0.22988,10e-4 0.34482,0.005 0.11494,0 0.22989,5e-4 0.34483,5e-4 0.11494,0 0.22989,0 0.34483,0 0.11494,0 0.22988,0 0.34483,0 0.11494,0 0.22988,0 0.34482,0 0.11494,0 0.22989,0 0.34483,0"
       title="t exp(-pow(-t,2)/2)/4"
       id="path3395" />
    <path
       style="fill:none;stroke:#000000;stroke-width:0.40000013;stroke-linecap:butt;stroke-linejoin:miter;stroke-miterlimit:4;stroke-dasharray:none;stroke-opacity:1;marker-end:url(#marker1761)"
       d="m 6.0000144,57.499982 v -35"
       id="path1757"
       inkscape:connector-curvature="0" />
    <path
       inkscape:connector-curvature="0"
       id="path1899"
       d="M 0.99999868,52.500048 H 58.999998"
       style="fill:none;stroke:#000000;stroke-width:0.39999998;stroke-linecap:butt;stroke-linejoin:miter;stroke-miterlimit:4;stroke-dasharray:none;stroke-opacity:1;marker-end:url(#marker1903)" />
    <path
       inkscape:connector-curvature="0"
       id="path4047"
       d="M 58.409962,27.5 Z"
       style="fill:none;stroke:#000000;stroke-width:0.26458332px;stroke-linecap:butt;stroke-linejoin:miter;stroke-opacity:1" />
    <path
       inkscape:connector-curvature="0"
       id="path817"
       d="M 74.99999,54 V 24"
       style="fill:none;stroke:#000000;stroke-width:0.40000007;stroke-linecap:butt;stroke-linejoin:miter;stroke-miterlimit:4;stroke-dasharray:none;stroke-opacity:1;marker-end:url(#Arrow1Mend)" />
    <path
       style="fill:none;stroke:#000000;stroke-width:0.40000001;stroke-linecap:butt;stroke-linejoin:miter;stroke-miterlimit:4;stroke-dasharray:none;stroke-opacity:1;marker-end:url(#marker1111)"
       d="M 60,39 H 97.49998"
       id="path1107"
       inkscape:connector-curvature="0" />
    <ellipse
       style="fill:#5a64ff;fill-opacity:1;stroke:#5a64ff;stroke-width:0.1;stroke-linecap:round;stroke-linejoin:round;stroke-miterlimit:4;stroke-dasharray:none;stroke-opacity:1;paint-order:markers fill stroke"
       id="circle1307"
       cx="80.000099"
       cy="43.999973"
       rx="0.5"
       ry="0.5000003" />
    <ellipse
       cy="43.999973"
       cx="70.000107"
       id="circle1309"
       style="fill:#5a64ff;fill-opacity:1;stroke:#5a64ff;stroke-width:0.1;stroke-linecap:round;stroke-linejoin:round;stroke-miterlimit:4;stroke-dasharray:none;stroke-opacity:1;paint-order:markers fill stroke"
       rx="0.5"
       ry="0.5000003" />
    <ellipse
       style="fill:#5a64ff;fill-opacity:1;stroke:#5a64ff;stroke-width:0.1;stroke-linecap:round;stroke-linejoin:round;stroke-miterlimit:4;stroke-dasharray:none;stroke-opacity:1;paint-order:markers fill stroke"
       id="circle1311"
       cx="70.000107"
       cy="33.999969"
       rx="0.4999997"
       ry="0.5" />
    <ellipse
       cy="33.999969"
       cx="80.000099"
       id="path1305"
       style="fill:#5a64ff;fill-opacity:1;stroke:#5a64ff;stroke-width:0.1;stroke-linecap:round;stroke-linejoin:round;stroke-miterlimit:4;stroke-dasharray:none;stroke-opacity:1;paint-order:markers fill stroke"
       rx="0.5"
       ry="0.5000003" />
    <ellipse
       style="fill:#ff0019;fill-opacity:1;stroke:#ff0032;stroke-width:0.1;stroke-linecap:round;stroke-linejoin:round;stroke-miterlimit:4;stroke-dasharray:none;stroke-opacity:1;paint-order:markers fill stroke"
       id="circle1313"
       cx="92.500031"
       cy="38.999882"
       rx="0.4999997"
       ry="0.5" />
    <path
       inkscape:connector-curvature="0"
       id="path2192"
       d="m 11,51.500003 v 3.999999"
       style="fill:none;stroke:#000000;stroke-width:0.1;stroke-linecap:butt;stroke-linejoin:miter;stroke-miterlimit:4;stroke-dasharray:0.2, 0.1;stroke-dashoffset:0;stroke-opacity:1" />
    <path
       style="fill:none;stroke:#000000;stroke-width:0.1;stroke-linecap:butt;stroke-linejoin:miter;stroke-miterlimit:4;stroke-dasharray:0.2, 0.1;stroke-dashoffset:0;stroke-opacity:1"
       d="M 21,51.500001 V 55.5"
       id="path2266"
       inkscape:connector-curvature="0" />
    <g
       id="lx-text1015"
       transform="matrix(0.352778,0,0,0.352778,84.965926,43.118056)">
      <defs
         id="defs1238">
        <g
           id="g1236">
          <symbol
             id="lx-text1015-glyph0-0"
             overflow="visible"
             style="overflow:visible">
            <path
               id="path1206"
               d=""
               style="stroke:none"
               inkscape:connector-curvature="0" />
          </symbol>
          <symbol
             id="lx-text1015-glyph0-1"
             overflow="visible"
             style="overflow:visible">
            <path
               id="path1209"
               d="M 2.234375,-3.515625 V -6.09375 c 0,-0.234375 0,-0.359375 0.21875,-0.390625 C 2.546875,-6.5 2.84375,-6.5 3.046875,-6.5 c 0.890625,0 2,0.046875 2,1.484375 0,0.6875 -0.234375,1.5 -1.703125,1.5 z m 2.109375,0.125 C 5.296875,-3.625 6.078125,-4.234375 6.078125,-5.015625 6.078125,-5.96875 4.9375,-6.8125 3.484375,-6.8125 H 0.34375 V -6.5 h 0.25 c 0.765625,0 0.78125,0.109375 0.78125,0.46875 v 5.25 c 0,0.359375 -0.015625,0.46875 -0.78125,0.46875 h -0.25 V 0 c 0.359375,-0.03125 1.078125,-0.03125 1.453125,-0.03125 0.390625,0 1.109375,0 1.46875,0.03125 v -0.3125 h -0.25 c -0.765625,0 -0.78125,-0.109375 -0.78125,-0.46875 V -3.296875 H 3.375 c 0.15625,0 0.578125,0 0.9375,0.34375 0.375,0.34375 0.375,0.65625 0.375,1.328125 0,0.640625 0,1.046875 0.40625,1.421875 0.40625,0.359375 0.953125,0.421875 1.25,0.421875 0.78125,0 0.953125,-0.8125 0.953125,-1.09375 0,-0.0625 0,-0.171875 -0.125,-0.171875 -0.109375,0 -0.109375,0.09375 -0.125,0.15625 C 6.984375,-0.171875 6.640625,0 6.390625,0 5.90625,0 5.828125,-0.515625 5.6875,-1.4375 L 5.546875,-2.234375 C 5.375,-2.875 4.890625,-3.203125 4.34375,-3.390625 Z m 0,0"
               style="stroke:none"
               inkscape:connector-curvature="0" />
          </symbol>
          <symbol
             id="lx-text1015-glyph0-2"
             overflow="visible"
             style="overflow:visible">
            <path
               id="path1212"
               d="M 1.109375,-2.515625 C 1.171875,-4 2.015625,-4.25 2.359375,-4.25 c 1.015625,0 1.125,1.34375 1.125,1.734375 z m 0,0.21875 h 2.78125 c 0.21875,0 0.25,0 0.25,-0.21875 0,-0.984375 -0.546875,-1.953125 -1.78125,-1.953125 -1.15625,0 -2.078125,1.03125 -2.078125,2.28125 0,1.328125 1.046875,2.296875 2.1875,2.296875 C 3.6875,0.109375 4.140625,-1 4.140625,-1.1875 4.140625,-1.28125 4.0625,-1.3125 4,-1.3125 c -0.078125,0 -0.109375,0.0625 -0.125,0.140625 -0.34375,1.03125 -1.25,1.03125 -1.34375,1.03125 -0.5,0 -0.890625,-0.296875 -1.125,-0.671875 -0.296875,-0.46875 -0.296875,-1.125 -0.296875,-1.484375 z m 0,0"
               style="stroke:none"
               inkscape:connector-curvature="0" />
          </symbol>
          <symbol
             id="lx-text1015-glyph0-3"
             overflow="visible"
             style="overflow:visible">
            <path
               id="path1215"
               d="M 2.546875,2.5 V 2.09375 h -0.96875 v -9.171875 h 0.96875 v -0.40625 h -1.375 V 2.5 Z m 0,0"
               style="stroke:none"
               inkscape:connector-curvature="0" />
          </symbol>
          <symbol
             id="lx-text1015-glyph0-4"
             overflow="visible"
             style="overflow:visible">
            <path
               id="path1218"
               d="m 3.296875,2.390625 c 0,-0.03125 0,-0.046875 -0.171875,-0.21875 C 1.890625,0.921875 1.5625,-0.96875 1.5625,-2.5 c 0,-1.734375 0.375,-3.46875 1.609375,-4.703125 0.125,-0.125 0.125,-0.140625 0.125,-0.171875 0,-0.078125 -0.03125,-0.109375 -0.09375,-0.109375 -0.109375,0 -1,0.6875 -1.59375,1.953125 -0.5,1.09375 -0.625,2.203125 -0.625,3.03125 0,0.78125 0.109375,1.984375 0.65625,3.125 C 2.25,1.84375 3.09375,2.5 3.203125,2.5 c 0.0625,0 0.09375,-0.03125 0.09375,-0.109375 z m 0,0"
               style="stroke:none"
               inkscape:connector-curvature="0" />
          </symbol>
          <symbol
             id="lx-text1015-glyph0-5"
             overflow="visible"
             style="overflow:visible">
            <path
               id="path1221"
               d="m 2.875,-2.5 c 0,-0.765625 -0.109375,-1.96875 -0.65625,-3.109375 -0.59375,-1.21875 -1.453125,-1.875 -1.546875,-1.875 -0.0625,0 -0.109375,0.046875 -0.109375,0.109375 0,0.03125 0,0.046875 0.1875,0.234375 0.984375,0.984375 1.546875,2.5625 1.546875,4.640625 0,1.71875 -0.359375,3.46875 -1.59375,4.71875 C 0.5625,2.34375 0.5625,2.359375 0.5625,2.390625 0.5625,2.453125 0.609375,2.5 0.671875,2.5 0.765625,2.5 1.671875,1.8125 2.25,0.546875 2.765625,-0.546875 2.875,-1.65625 2.875,-2.5 Z m 0,0"
               style="stroke:none"
               inkscape:connector-curvature="0" />
          </symbol>
          <symbol
             id="lx-text1015-glyph0-6"
             overflow="visible"
             style="overflow:visible">
            <path
               id="path1224"
               d="M 1.578125,-7.484375 H 0.21875 v 0.40625 H 1.1875 V 2.09375 H 0.21875 V 2.5 h 1.359375 z m 0,0"
               style="stroke:none"
               inkscape:connector-curvature="0" />
          </symbol>
          <symbol
             id="lx-text1015-glyph1-0"
             overflow="visible"
             style="overflow:visible">
            <path
               id="path1227"
               d=""
               style="stroke:none"
               inkscape:connector-curvature="0" />
          </symbol>
          <symbol
             id="lx-text1015-glyph1-1"
             overflow="visible"
             style="overflow:visible">
            <path
               id="path1230"
               d="m 4.84375,-3.796875 c 0.046875,-0.140625 0.046875,-0.15625 0.046875,-0.234375 0,-0.171875 -0.140625,-0.265625 -0.296875,-0.265625 -0.09375,0 -0.25,0.0625 -0.34375,0.203125 -0.015625,0.0625 -0.109375,0.359375 -0.140625,0.546875 -0.078125,0.25 -0.140625,0.53125 -0.203125,0.796875 l -0.453125,1.796875 c -0.03125,0.140625 -0.46875,0.84375 -1.125,0.84375 -0.5,0 -0.609375,-0.4375 -0.609375,-0.8125 C 1.71875,-1.375 1.890625,-2 2.21875,-2.875 2.375,-3.28125 2.421875,-3.390625 2.421875,-3.59375 c 0,-0.4375 -0.3125,-0.8125 -0.8125,-0.8125 -0.953125,0 -1.3125,1.453125 -1.3125,1.53125 0,0.109375 0.09375,0.109375 0.109375,0.109375 0.109375,0 0.109375,-0.03125 0.15625,-0.1875 0.28125,-0.9375 0.671875,-1.234375 1.015625,-1.234375 0.078125,0 0.25,0 0.25,0.3125 0,0.25 -0.109375,0.515625 -0.171875,0.703125 -0.40625,1.0625 -0.578125,1.625 -0.578125,2.09375 0,0.890625 0.625,1.1875 1.21875,1.1875 0.390625,0 0.71875,-0.171875 1,-0.453125 -0.125,0.515625 -0.25,1.015625 -0.640625,1.546875 -0.265625,0.328125 -0.640625,0.625 -1.09375,0.625 -0.140625,0 -0.59375,-0.03125 -0.765625,-0.421875 0.15625,0 0.296875,0 0.421875,-0.125 C 1.328125,1.203125 1.421875,1.0625 1.421875,0.875 1.421875,0.5625 1.15625,0.53125 1.0625,0.53125 0.828125,0.53125 0.5,0.6875 0.5,1.171875 c 0,0.5 0.4375,0.875 1.0625,0.875 1.015625,0 2.046875,-0.90625 2.328125,-2.03125 z m 0,0"
               style="stroke:none"
               inkscape:connector-curvature="0" />
          </symbol>
          <symbol
             id="lx-text1015-glyph1-2"
             overflow="visible"
             style="overflow:visible">
            <path
               id="path1233"
               d="m 0.875,-0.59375 c -0.03125,0.15625 -0.09375,0.390625 -0.09375,0.4375 0,0.171875 0.140625,0.265625 0.296875,0.265625 0.125,0 0.296875,-0.078125 0.375,-0.28125 0,-0.015625 0.125,-0.484375 0.1875,-0.734375 l 0.21875,-0.890625 C 1.90625,-2.03125 1.96875,-2.25 2.03125,-2.46875 c 0.03125,-0.171875 0.109375,-0.46875 0.125,-0.5 0.140625,-0.3125 0.671875,-1.21875 1.625,-1.21875 0.453125,0 0.53125,0.375 0.53125,0.703125 0,0.609375 -0.484375,1.890625 -0.640625,2.3125 C 3.578125,-0.9375 3.5625,-0.8125 3.5625,-0.703125 c 0,0.46875 0.359375,0.8125 0.828125,0.8125 0.9375,0 1.296875,-1.453125 1.296875,-1.53125 0,-0.109375 -0.078125,-0.109375 -0.109375,-0.109375 -0.109375,0 -0.109375,0.03125 -0.15625,0.1875 -0.203125,0.671875 -0.53125,1.234375 -1.015625,1.234375 -0.171875,0 -0.234375,-0.09375 -0.234375,-0.328125 0,-0.25 0.078125,-0.484375 0.171875,-0.703125 0.1875,-0.53125 0.609375,-1.625 0.609375,-2.203125 0,-0.65625 -0.421875,-1.0625 -1.140625,-1.0625 -0.90625,0 -1.390625,0.640625 -1.5625,0.875 -0.046875,-0.5625 -0.453125,-0.875 -0.921875,-0.875 -0.453125,0 -0.640625,0.390625 -0.734375,0.5625 C 0.421875,-3.5 0.296875,-2.90625 0.296875,-2.875 c 0,0.109375 0.09375,0.109375 0.109375,0.109375 0.109375,0 0.109375,-0.015625 0.171875,-0.234375 0.171875,-0.703125 0.375,-1.1875 0.734375,-1.1875 0.1875,0 0.296875,0.125 0.296875,0.453125 0,0.21875 -0.03125,0.328125 -0.15625,0.84375 z m 0,0"
               style="stroke:none"
               inkscape:connector-curvature="0" />
          </symbol>
        </g>
      </defs>
      <g
         id="lx-text1015-surface1">
        <g
           id="g1246"
           style="fill:#000000;fill-opacity:1">
          <use
             id="use1240"
             y="0"
             x="0"
             xlink:href="#lx-text1015-glyph0-1"
             width="100%"
             height="100%" />
          <use
             id="use1242"
             y="0"
             x="7.3334699"
             xlink:href="#lx-text1015-glyph0-2"
             width="100%"
             height="100%" />
          <use
             id="use1244"
             y="0"
             x="11.760849"
             xlink:href="#lx-text1015-glyph0-3"
             width="100%"
             height="100%" />
        </g>
        <g
           id="g1250"
           style="fill:#000000;fill-opacity:1">
          <use
             id="use1248"
             y="0"
             x="14.529"
             xlink:href="#lx-text1015-glyph1-1"
             width="100%"
             height="100%" />
        </g>
        <g
           id="g1254"
           style="fill:#000000;fill-opacity:1">
          <use
             id="use1252"
             y="0"
             x="19.771"
             xlink:href="#lx-text1015-glyph0-4"
             width="100%"
             height="100%" />
        </g>
        <g
           id="g1258"
           style="fill:#000000;fill-opacity:1">
          <use
             id="use1256"
             y="0"
             x="23.645"
             xlink:href="#lx-text1015-glyph1-2"
             width="100%"
             height="100%" />
        </g>
        <g
           id="g1264"
           style="fill:#000000;fill-opacity:1">
          <use
             id="use1260"
             y="0"
             x="29.625"
             xlink:href="#lx-text1015-glyph0-5"
             width="100%"
             height="100%" />
          <use
             id="use1262"
             y="0"
             x="33.499454"
             xlink:href="#lx-text1015-glyph0-6"
             width="100%"
             height="100%" />
        </g>
      </g>
    </g>
    <g
       id="lx-text1023"
       transform="matrix(0.352778,0,0,0.352778,60.900781,26.48047)">
      <defs
         id="defs1300">
        <g
           id="g1298">
          <symbol
             id="lx-text1023-glyph0-0"
             overflow="visible"
             style="overflow:visible">
            <path
               id="path1268"
               d=""
               style="stroke:none"
               inkscape:connector-curvature="0" />
          </symbol>
          <symbol
             id="lx-text1023-glyph0-1"
             overflow="visible"
             style="overflow:visible">
            <path
               id="path1271"
               d="M 2.25,-6.03125 C 2.25,-6.390625 2.265625,-6.5 3.0625,-6.5 h 0.25 v -0.3125 c -0.34375,0.03125 -1.125,0.03125 -1.515625,0.03125 -0.375,0 -1.171875,0 -1.515625,-0.03125 V -6.5 h 0.25 c 0.796875,0 0.828125,0.109375 0.828125,0.46875 v 5.25 c 0,0.359375 -0.03125,0.46875 -0.828125,0.46875 h -0.25 V 0 c 0.34375,-0.03125 1.140625,-0.03125 1.515625,-0.03125 0.390625,0 1.171875,0 1.515625,0.03125 v -0.3125 h -0.25 C 2.265625,-0.3125 2.25,-0.421875 2.25,-0.78125 Z m 0,0"
               style="stroke:none"
               inkscape:connector-curvature="0" />
          </symbol>
          <symbol
             id="lx-text1023-glyph0-2"
             overflow="visible"
             style="overflow:visible">
            <path
               id="path1274"
               d="M 1.09375,-3.421875 V -0.75 c 0,0.4375 -0.109375,0.4375 -0.78125,0.4375 V 0 c 0.359375,-0.015625 0.859375,-0.03125 1.140625,-0.03125 0.25,0 0.765625,0.015625 1.109375,0.03125 v -0.3125 c -0.671875,0 -0.78125,0 -0.78125,-0.4375 V -2.59375 C 1.78125,-3.625 2.5,-4.1875 3.125,-4.1875 c 0.640625,0 0.75,0.53125 0.75,1.109375 V -0.75 c 0,0.4375 -0.109375,0.4375 -0.78125,0.4375 V 0 c 0.34375,-0.015625 0.859375,-0.03125 1.125,-0.03125 0.25,0 0.78125,0.015625 1.109375,0.03125 v -0.3125 c -0.65625,0 -0.765625,0 -0.765625,-0.4375 v -1.84375 c 0,-1.03125 0.703125,-1.59375 1.34375,-1.59375 0.625,0 0.734375,0.53125 0.734375,1.109375 V -0.75 c 0,0.4375 -0.109375,0.4375 -0.78125,0.4375 V 0 c 0.34375,-0.015625 0.859375,-0.03125 1.125,-0.03125 0.265625,0 0.78125,0.015625 1.125,0.03125 v -0.3125 c -0.515625,0 -0.765625,0 -0.78125,-0.296875 v -1.90625 c 0,-0.859375 0,-1.15625 -0.3125,-1.515625 -0.140625,-0.171875 -0.46875,-0.375 -1.046875,-0.375 -0.828125,0 -1.28125,0.59375 -1.4375,0.984375 C 4.390625,-4.296875 3.65625,-4.40625 3.203125,-4.40625 2.46875,-4.40625 2,-3.984375 1.71875,-3.359375 V -4.40625 L 0.3125,-4.296875 v 0.3125 c 0.703125,0 0.78125,0.0625 0.78125,0.5625 z m 0,0"
               style="stroke:none"
               inkscape:connector-curvature="0" />
          </symbol>
          <symbol
             id="lx-text1023-glyph0-3"
             overflow="visible"
             style="overflow:visible">
            <path
               id="path1277"
               d="M 2.546875,2.5 V 2.09375 h -0.96875 v -9.171875 h 0.96875 v -0.40625 h -1.375 V 2.5 Z m 0,0"
               style="stroke:none"
               inkscape:connector-curvature="0" />
          </symbol>
          <symbol
             id="lx-text1023-glyph0-4"
             overflow="visible"
             style="overflow:visible">
            <path
               id="path1280"
               d="m 3.296875,2.390625 c 0,-0.03125 0,-0.046875 -0.171875,-0.21875 C 1.890625,0.921875 1.5625,-0.96875 1.5625,-2.5 c 0,-1.734375 0.375,-3.46875 1.609375,-4.703125 0.125,-0.125 0.125,-0.140625 0.125,-0.171875 0,-0.078125 -0.03125,-0.109375 -0.09375,-0.109375 -0.109375,0 -1,0.6875 -1.59375,1.953125 -0.5,1.09375 -0.625,2.203125 -0.625,3.03125 0,0.78125 0.109375,1.984375 0.65625,3.125 C 2.25,1.84375 3.09375,2.5 3.203125,2.5 c 0.0625,0 0.09375,-0.03125 0.09375,-0.109375 z m 0,0"
               style="stroke:none"
               inkscape:connector-curvature="0" />
          </symbol>
          <symbol
             id="lx-text1023-glyph0-5"
             overflow="visible"
             style="overflow:visible">
            <path
               id="path1283"
               d="m 2.875,-2.5 c 0,-0.765625 -0.109375,-1.96875 -0.65625,-3.109375 -0.59375,-1.21875 -1.453125,-1.875 -1.546875,-1.875 -0.0625,0 -0.109375,0.046875 -0.109375,0.109375 0,0.03125 0,0.046875 0.1875,0.234375 0.984375,0.984375 1.546875,2.5625 1.546875,4.640625 0,1.71875 -0.359375,3.46875 -1.59375,4.71875 C 0.5625,2.34375 0.5625,2.359375 0.5625,2.390625 0.5625,2.453125 0.609375,2.5 0.671875,2.5 0.765625,2.5 1.671875,1.8125 2.25,0.546875 2.765625,-0.546875 2.875,-1.65625 2.875,-2.5 Z m 0,0"
               style="stroke:none"
               inkscape:connector-curvature="0" />
          </symbol>
          <symbol
             id="lx-text1023-glyph0-6"
             overflow="visible"
             style="overflow:visible">
            <path
               id="path1286"
               d="M 1.578125,-7.484375 H 0.21875 v 0.40625 H 1.1875 V 2.09375 H 0.21875 V 2.5 h 1.359375 z m 0,0"
               style="stroke:none"
               inkscape:connector-curvature="0" />
          </symbol>
          <symbol
             id="lx-text1023-glyph1-0"
             overflow="visible"
             style="overflow:visible">
            <path
               id="path1289"
               d=""
               style="stroke:none"
               inkscape:connector-curvature="0" />
          </symbol>
          <symbol
             id="lx-text1023-glyph1-1"
             overflow="visible"
             style="overflow:visible">
            <path
               id="path1292"
               d="m 4.84375,-3.796875 c 0.046875,-0.140625 0.046875,-0.15625 0.046875,-0.234375 0,-0.171875 -0.140625,-0.265625 -0.296875,-0.265625 -0.09375,0 -0.25,0.0625 -0.34375,0.203125 -0.015625,0.0625 -0.109375,0.359375 -0.140625,0.546875 -0.078125,0.25 -0.140625,0.53125 -0.203125,0.796875 l -0.453125,1.796875 c -0.03125,0.140625 -0.46875,0.84375 -1.125,0.84375 -0.5,0 -0.609375,-0.4375 -0.609375,-0.8125 C 1.71875,-1.375 1.890625,-2 2.21875,-2.875 2.375,-3.28125 2.421875,-3.390625 2.421875,-3.59375 c 0,-0.4375 -0.3125,-0.8125 -0.8125,-0.8125 -0.953125,0 -1.3125,1.453125 -1.3125,1.53125 0,0.109375 0.09375,0.109375 0.109375,0.109375 0.109375,0 0.109375,-0.03125 0.15625,-0.1875 0.28125,-0.9375 0.671875,-1.234375 1.015625,-1.234375 0.078125,0 0.25,0 0.25,0.3125 0,0.25 -0.109375,0.515625 -0.171875,0.703125 -0.40625,1.0625 -0.578125,1.625 -0.578125,2.09375 0,0.890625 0.625,1.1875 1.21875,1.1875 0.390625,0 0.71875,-0.171875 1,-0.453125 -0.125,0.515625 -0.25,1.015625 -0.640625,1.546875 -0.265625,0.328125 -0.640625,0.625 -1.09375,0.625 -0.140625,0 -0.59375,-0.03125 -0.765625,-0.421875 0.15625,0 0.296875,0 0.421875,-0.125 C 1.328125,1.203125 1.421875,1.0625 1.421875,0.875 1.421875,0.5625 1.15625,0.53125 1.0625,0.53125 0.828125,0.53125 0.5,0.6875 0.5,1.171875 c 0,0.5 0.4375,0.875 1.0625,0.875 1.015625,0 2.046875,-0.90625 2.328125,-2.03125 z m 0,0"
               style="stroke:none"
               inkscape:connector-curvature="0" />
          </symbol>
          <symbol
             id="lx-text1023-glyph1-2"
             overflow="visible"
             style="overflow:visible">
            <path
               id="path1295"
               d="m 0.875,-0.59375 c -0.03125,0.15625 -0.09375,0.390625 -0.09375,0.4375 0,0.171875 0.140625,0.265625 0.296875,0.265625 0.125,0 0.296875,-0.078125 0.375,-0.28125 0,-0.015625 0.125,-0.484375 0.1875,-0.734375 l 0.21875,-0.890625 C 1.90625,-2.03125 1.96875,-2.25 2.03125,-2.46875 c 0.03125,-0.171875 0.109375,-0.46875 0.125,-0.5 0.140625,-0.3125 0.671875,-1.21875 1.625,-1.21875 0.453125,0 0.53125,0.375 0.53125,0.703125 0,0.609375 -0.484375,1.890625 -0.640625,2.3125 C 3.578125,-0.9375 3.5625,-0.8125 3.5625,-0.703125 c 0,0.46875 0.359375,0.8125 0.828125,0.8125 0.9375,0 1.296875,-1.453125 1.296875,-1.53125 0,-0.109375 -0.078125,-0.109375 -0.109375,-0.109375 -0.109375,0 -0.109375,0.03125 -0.15625,0.1875 -0.203125,0.671875 -0.53125,1.234375 -1.015625,1.234375 -0.171875,0 -0.234375,-0.09375 -0.234375,-0.328125 0,-0.25 0.078125,-0.484375 0.171875,-0.703125 0.1875,-0.53125 0.609375,-1.625 0.609375,-2.203125 0,-0.65625 -0.421875,-1.0625 -1.140625,-1.0625 -0.90625,0 -1.390625,0.640625 -1.5625,0.875 -0.046875,-0.5625 -0.453125,-0.875 -0.921875,-0.875 -0.453125,0 -0.640625,0.390625 -0.734375,0.5625 C 0.421875,-3.5 0.296875,-2.90625 0.296875,-2.875 c 0,0.109375 0.09375,0.109375 0.109375,0.109375 0.109375,0 0.109375,-0.015625 0.171875,-0.234375 0.171875,-0.703125 0.375,-1.1875 0.734375,-1.1875 0.1875,0 0.296875,0.125 0.296875,0.453125 0,0.21875 -0.03125,0.328125 -0.15625,0.84375 z m 0,0"
               style="stroke:none"
               inkscape:connector-curvature="0" />
          </symbol>
        </g>
      </defs>
      <g
         id="lx-text1023-surface1">
        <g
           id="g1308"
           style="fill:#000000;fill-opacity:1">
          <use
             id="use1302"
             y="0"
             x="0"
             xlink:href="#lx-text1023-glyph0-1"
             width="100%"
             height="100%" />
          <use
             id="use1304"
             y="0"
             x="3.5974951"
             xlink:href="#lx-text1023-glyph0-2"
             width="100%"
             height="100%" />
          <use
             id="use1306"
             y="0"
             x="11.899329"
             xlink:href="#lx-text1023-glyph0-3"
             width="100%"
             height="100%" />
        </g>
        <g
           id="g1312"
           style="fill:#000000;fill-opacity:1">
          <use
             id="use1310"
             y="0"
             x="14.667"
             xlink:href="#lx-text1023-glyph1-1"
             width="100%"
             height="100%" />
        </g>
        <g
           id="g1316"
           style="fill:#000000;fill-opacity:1">
          <use
             id="use1314"
             y="0"
             x="19.909"
             xlink:href="#lx-text1023-glyph0-4"
             width="100%"
             height="100%" />
        </g>
        <g
           id="g1320"
           style="fill:#000000;fill-opacity:1">
          <use
             id="use1318"
             y="0"
             x="23.784"
             xlink:href="#lx-text1023-glyph1-2"
             width="100%"
             height="100%" />
        </g>
        <g
           id="g1326"
           style="fill:#000000;fill-opacity:1">
          <use
             id="use1322"
             y="0"
             x="29.764"
             xlink:href="#lx-text1023-glyph0-5"
             width="100%"
             height="100%" />
          <use
             id="use1324"
             y="0"
             x="33.638454"
             xlink:href="#lx-text1023-glyph0-6"
             width="100%"
             height="100%" />
        </g>
      </g>
    </g>
    <g
       style="fill:#ff0019;fill-opacity:1;stroke:none;stroke-opacity:1"
       id="lx-text1336"
       transform="matrix(0.352778,0,0,0.352778,21.972358,24.277909)">
      <defs
         id="defs1362">
        <g
           id="g1360">
          <symbol
             id="lx-text1336-glyph0-0"
             overflow="visible"
             style="overflow:visible">
            <path
               id="path1330"
               d=""
               style="stroke:none"
               inkscape:connector-curvature="0" />
          </symbol>
          <symbol
             id="lx-text1336-glyph0-1"
             overflow="visible"
             style="overflow:visible">
            <path
               id="path1333"
               d="m 2.265625,-3.15625 h 1.6875 c 1.1875,0 2.265625,-0.796875 2.265625,-1.796875 C 6.21875,-5.9375 5.234375,-6.8125 3.875,-6.8125 H 0.34375 V -6.5 h 0.25 c 0.765625,0 0.78125,0.109375 0.78125,0.46875 v 5.25 c 0,0.359375 -0.015625,0.46875 -0.78125,0.46875 h -0.25 V 0 c 0.359375,-0.03125 1.09375,-0.03125 1.46875,-0.03125 0.375,0 1.125,0 1.484375,0.03125 v -0.3125 h -0.25 c -0.765625,0 -0.78125,-0.109375 -0.78125,-0.46875 z m -0.03125,-0.25 v -2.6875 C 2.234375,-6.4375 2.25,-6.5 2.71875,-6.5 h 0.890625 c 1.578125,0 1.578125,1.0625 1.578125,1.546875 0,0.46875 0,1.546875 -1.578125,1.546875 z m 0,0"
               style="stroke:none"
               inkscape:connector-curvature="0" />
          </symbol>
          <symbol
             id="lx-text1336-glyph0-2"
             overflow="visible"
             style="overflow:visible">
            <path
               id="path1336"
               d="M 1.765625,-4.40625 0.375,-4.296875 v 0.3125 c 0.640625,0 0.734375,0.0625 0.734375,0.546875 V -0.75 c 0,0.4375 -0.109375,0.4375 -0.78125,0.4375 V 0 C 0.640625,-0.015625 1.1875,-0.03125 1.421875,-0.03125 1.78125,-0.03125 2.125,-0.015625 2.46875,0 v -0.3125 c -0.671875,0 -0.703125,-0.046875 -0.703125,-0.4375 z m 0.03125,-1.734375 c 0,-0.3125 -0.234375,-0.53125 -0.515625,-0.53125 -0.3125,0 -0.53125,0.265625 -0.53125,0.53125 0,0.265625 0.21875,0.53125 0.53125,0.53125 0.28125,0 0.515625,-0.21875 0.515625,-0.53125 z m 0,0"
               style="stroke:none"
               inkscape:connector-curvature="0" />
          </symbol>
          <symbol
             id="lx-text1336-glyph0-3"
             overflow="visible"
             style="overflow:visible">
            <path
               id="path1339"
               d="M 1.765625,-6.921875 0.328125,-6.8125 V -6.5 c 0.703125,0 0.78125,0.0625 0.78125,0.5625 V -0.75 c 0,0.4375 -0.109375,0.4375 -0.78125,0.4375 V 0 C 0.65625,-0.015625 1.1875,-0.03125 1.4375,-0.03125 c 0.25,0 0.734375,0.015625 1.109375,0.03125 v -0.3125 c -0.671875,0 -0.78125,0 -0.78125,-0.4375 z m 0,0"
               style="stroke:none"
               inkscape:connector-curvature="0" />
          </symbol>
          <symbol
             id="lx-text1336-glyph0-4"
             overflow="visible"
             style="overflow:visible">
            <path
               id="path1342"
               d="M 4.6875,-2.140625 C 4.6875,-3.40625 3.703125,-4.46875 2.5,-4.46875 c -1.25,0 -2.21875,1.09375 -2.21875,2.328125 0,1.296875 1.03125,2.25 2.203125,2.25 1.203125,0 2.203125,-0.984375 2.203125,-2.25 z m -2.1875,2 c -0.4375,0 -0.875,-0.203125 -1.140625,-0.671875 -0.25,-0.4375 -0.25,-1.046875 -0.25,-1.40625 0,-0.390625 0,-0.921875 0.234375,-1.359375 C 1.609375,-4.03125 2.078125,-4.25 2.484375,-4.25 c 0.4375,0 0.859375,0.21875 1.125,0.65625 0.265625,0.421875 0.265625,1 0.265625,1.375 0,0.359375 0,0.90625 -0.21875,1.34375 C 3.421875,-0.421875 2.984375,-0.140625 2.5,-0.140625 Z m 0,0"
               style="stroke:none"
               inkscape:connector-curvature="0" />
          </symbol>
          <symbol
             id="lx-text1336-glyph0-5"
             overflow="visible"
             style="overflow:visible">
            <path
               id="path1345"
               d="m 1.71875,-3.984375 h 1.4375 v -0.3125 H 1.71875 V -6.125 h -0.25 c 0,0.8125 -0.296875,1.875 -1.28125,1.921875 v 0.21875 h 0.84375 v 2.75 c 0,1.21875 0.9375,1.34375 1.296875,1.34375 0.703125,0 0.984375,-0.703125 0.984375,-1.34375 v -0.5625 h -0.25 V -1.25 c 0,0.734375 -0.296875,1.109375 -0.671875,1.109375 -0.671875,0 -0.671875,-0.90625 -0.671875,-1.078125 z m 0,0"
               style="stroke:none"
               inkscape:connector-curvature="0" />
          </symbol>
          <symbol
             id="lx-text1336-glyph0-6"
             overflow="visible"
             style="overflow:visible">
            <path
               id="path1348"
               d="m 3.484375,-3.875 -1.28125,-0.296875 c -0.625,-0.15625 -1,-0.6875 -1,-1.265625 0,-0.703125 0.53125,-1.3125 1.3125,-1.3125 1.65625,0 1.875,1.640625 1.9375,2.078125 0.015625,0.0625 0.015625,0.125 0.125,0.125 0.125,0 0.125,-0.046875 0.125,-0.234375 v -2 c 0,-0.171875 0,-0.25 -0.109375,-0.25 -0.0625,0 -0.078125,0.015625 -0.140625,0.140625 l -0.359375,0.5625 C 3.796875,-6.625 3.390625,-7.03125 2.5,-7.03125 c -1.109375,0 -1.9375,0.875 -1.9375,1.9375 0,0.828125 0.53125,1.5625 1.296875,1.828125 0.109375,0.03125 0.625,0.15625 1.328125,0.328125 0.265625,0.0625 0.5625,0.140625 0.84375,0.5 0.203125,0.265625 0.3125,0.59375 0.3125,0.921875 0,0.703125 -0.5,1.421875 -1.34375,1.421875 -0.28125,0 -1.046875,-0.046875 -1.578125,-0.53125 C 0.84375,-1.171875 0.8125,-1.796875 0.8125,-2.15625 0.796875,-2.265625 0.71875,-2.265625 0.6875,-2.265625 c -0.125,0 -0.125,0.078125 -0.125,0.25 v 2 c 0,0.171875 0,0.234375 0.109375,0.234375 0.0625,0 0.078125,-0.015625 0.140625,-0.125 0,-0.015625 0.03125,-0.046875 0.359375,-0.578125 0.3125,0.34375 0.953125,0.703125 1.84375,0.703125 1.15625,0 1.953125,-0.96875 1.953125,-2.078125 0,-0.984375 -0.65625,-1.8125 -1.484375,-2.015625 z m 0,0"
               style="stroke:none"
               inkscape:connector-curvature="0" />
          </symbol>
          <symbol
             id="lx-text1336-glyph0-7"
             overflow="visible"
             style="overflow:visible">
            <path
               id="path1351"
               d="m 2.21875,-1.71875 c -0.875,0 -0.875,-1 -0.875,-1.21875 0,-0.265625 0.015625,-0.59375 0.15625,-0.84375 0.078125,-0.109375 0.3125,-0.390625 0.71875,-0.390625 0.859375,0 0.859375,0.984375 0.859375,1.21875 0,0.265625 0,0.59375 -0.15625,0.84375 C 2.84375,-2 2.609375,-1.71875 2.21875,-1.71875 Z M 1.0625,-1.328125 c 0,-0.03125 0,-0.265625 0.15625,-0.46875 0.390625,0.28125 0.8125,0.3125 1,0.3125 0.921875,0 1.609375,-0.6875 1.609375,-1.453125 0,-0.375 -0.15625,-0.734375 -0.40625,-0.96875 C 3.78125,-4.25 4.140625,-4.296875 4.3125,-4.296875 c 0.03125,0 0.078125,0 0.109375,0.015625 C 4.3125,-4.25 4.25,-4.140625 4.25,-4.015625 c 0,0.171875 0.140625,0.28125 0.296875,0.28125 0.09375,0 0.28125,-0.0625 0.28125,-0.296875 0,-0.171875 -0.109375,-0.484375 -0.5,-0.484375 -0.203125,0 -0.640625,0.0625 -1.0625,0.46875 C 2.84375,-4.375 2.4375,-4.40625 2.21875,-4.40625 c -0.9375,0 -1.625,0.6875 -1.625,1.453125 0,0.4375 0.21875,0.8125 0.46875,1.03125 -0.125,0.140625 -0.3125,0.46875 -0.3125,0.828125 0,0.3125 0.140625,0.6875 0.453125,0.890625 -0.609375,0.15625 -0.921875,0.59375 -0.921875,0.984375 0,0.71875 0.984375,1.265625 2.203125,1.265625 1.171875,0 2.203125,-0.5 2.203125,-1.28125 0,-0.34375 -0.125,-0.859375 -0.640625,-1.140625 -0.53125,-0.265625 -1.109375,-0.265625 -1.71875,-0.265625 -0.25,0 -0.671875,0 -0.75,-0.015625 C 1.265625,-0.703125 1.0625,-1 1.0625,-1.328125 Z M 2.5,1.828125 c -1.015625,0 -1.703125,-0.515625 -1.703125,-1.046875 0,-0.453125 0.375,-0.828125 0.8125,-0.84375 h 0.59375 c 0.859375,0 1.96875,0 1.96875,0.84375 0,0.546875 -0.703125,1.046875 -1.671875,1.046875 z m 0,0"
               style="stroke:none"
               inkscape:connector-curvature="0" />
          </symbol>
          <symbol
             id="lx-text1336-glyph0-8"
             overflow="visible"
             style="overflow:visible">
            <path
               id="path1354"
               d="M 1.09375,-3.421875 V -0.75 c 0,0.4375 -0.109375,0.4375 -0.78125,0.4375 V 0 c 0.359375,-0.015625 0.859375,-0.03125 1.140625,-0.03125 0.25,0 0.765625,0.015625 1.109375,0.03125 v -0.3125 c -0.671875,0 -0.78125,0 -0.78125,-0.4375 V -2.59375 C 1.78125,-3.625 2.5,-4.1875 3.125,-4.1875 c 0.640625,0 0.75,0.53125 0.75,1.109375 V -0.75 c 0,0.4375 -0.109375,0.4375 -0.78125,0.4375 V 0 c 0.34375,-0.015625 0.859375,-0.03125 1.125,-0.03125 0.25,0 0.78125,0.015625 1.109375,0.03125 v -0.3125 c -0.515625,0 -0.765625,0 -0.765625,-0.296875 v -1.90625 c 0,-0.859375 0,-1.15625 -0.3125,-1.515625 -0.140625,-0.171875 -0.46875,-0.375 -1.046875,-0.375 C 2.46875,-4.40625 2,-3.984375 1.71875,-3.359375 V -4.40625 L 0.3125,-4.296875 v 0.3125 c 0.703125,0 0.78125,0.0625 0.78125,0.5625 z m 0,0"
               style="stroke:none"
               inkscape:connector-curvature="0" />
          </symbol>
          <symbol
             id="lx-text1336-glyph0-9"
             overflow="visible"
             style="overflow:visible">
            <path
               id="path1357"
               d="m 3.3125,-0.75 c 0.046875,0.390625 0.3125,0.8125 0.78125,0.8125 0.21875,0 0.828125,-0.140625 0.828125,-0.953125 v -0.5625 h -0.25 v 0.5625 c 0,0.578125 -0.25,0.640625 -0.359375,0.640625 -0.328125,0 -0.375,-0.453125 -0.375,-0.5 v -1.984375 c 0,-0.421875 0,-0.8125 -0.359375,-1.1875 C 3.1875,-4.3125 2.6875,-4.46875 2.21875,-4.46875 c -0.828125,0 -1.515625,0.46875 -1.515625,1.125 0,0.296875 0.203125,0.46875 0.46875,0.46875 0.28125,0 0.453125,-0.203125 0.453125,-0.453125 0,-0.125 -0.046875,-0.453125 -0.515625,-0.453125 C 1.390625,-4.140625 1.875,-4.25 2.1875,-4.25 c 0.5,0 1.0625,0.390625 1.0625,1.28125 v 0.359375 c -0.515625,0.03125 -1.203125,0.0625 -1.828125,0.359375 -0.75,0.34375 -1,0.859375 -1,1.296875 0,0.8125 0.96875,1.0625 1.59375,1.0625 0.65625,0 1.109375,-0.40625 1.296875,-0.859375 z M 3.25,-2.390625 v 1 c 0,0.9375 -0.71875,1.28125 -1.171875,1.28125 -0.484375,0 -0.890625,-0.34375 -0.890625,-0.84375 0,-0.546875 0.421875,-1.375 2.0625,-1.4375 z m 0,0"
               style="stroke:none"
               inkscape:connector-curvature="0" />
          </symbol>
        </g>
      </defs>
      <g
         id="lx-text1336-surface1">
        <g
           id="g1374">
          <use
             id="use1364"
             y="0"
             x="0"
             xlink:href="#lx-text1336-glyph0-1"
             width="100%"
             height="100%" />
          <use
             id="use1366"
             y="0"
             x="6.7805462"
             xlink:href="#lx-text1336-glyph0-2"
             width="100%"
             height="100%" />
          <use
             id="use1368"
             y="0"
             x="9.5481558"
             xlink:href="#lx-text1336-glyph0-3"
             width="100%"
             height="100%" />
          <use
             id="use1370"
             y="0"
             x="12.315766"
             xlink:href="#lx-text1336-glyph0-4"
             width="100%"
             height="100%" />
          <use
             id="use1372"
             y="0"
             x="17.297066"
             xlink:href="#lx-text1336-glyph0-5"
             width="100%"
             height="100%" />
        </g>
        <g
           id="g1388">
          <use
             id="use1376"
             y="0"
             x="24.489067"
             xlink:href="#lx-text1336-glyph0-6"
             width="100%"
             height="100%" />
          <use
             id="use1378"
             y="0"
             x="30.024288"
             xlink:href="#lx-text1336-glyph0-2"
             width="100%"
             height="100%" />
          <use
             id="use1380"
             y="0"
             x="32.791897"
             xlink:href="#lx-text1336-glyph0-7"
             width="100%"
             height="100%" />
          <use
             id="use1382"
             y="0"
             x="37.773197"
             xlink:href="#lx-text1336-glyph0-8"
             width="100%"
             height="100%" />
          <use
             id="use1384"
             y="0"
             x="43.308418"
             xlink:href="#lx-text1336-glyph0-9"
             width="100%"
             height="100%" />
          <use
             id="use1386"
             y="0"
             x="48.289719"
             xlink:href="#lx-text1336-glyph0-3"
             width="100%"
             height="100%" />
        </g>
      </g>
    </g>
    <g
       id="lx-text3693"
       transform="matrix(0.352778,0,0,0.352778,53.639894,57.737717)">
      <defs
         id="defs1483">
        <g
           id="g1481">
          <symbol
             id="lx-text3693-glyph0-0"
             overflow="visible"
             style="overflow:visible">
            <path
               id="path1463"
               d=""
               style="stroke:none"
               inkscape:connector-curvature="0" />
          </symbol>
          <symbol
             id="lx-text3693-glyph0-1"
             overflow="visible"
             style="overflow:visible">
            <path
               id="path1466"
               d="m 2.046875,-3.984375 h 0.9375 c 0.203125,0 0.3125,0 0.3125,-0.203125 0,-0.109375 -0.109375,-0.109375 -0.28125,-0.109375 h -0.875 C 2.5,-5.71875 2.546875,-5.90625 2.546875,-5.96875 c 0,-0.171875 -0.125,-0.265625 -0.296875,-0.265625 -0.03125,0 -0.3125,0 -0.390625,0.359375 L 1.46875,-4.296875 h -0.9375 c -0.203125,0 -0.296875,0 -0.296875,0.1875 0,0.125 0.078125,0.125 0.28125,0.125 h 0.875 C 0.671875,-1.15625 0.625,-0.984375 0.625,-0.8125 0.625,-0.265625 1,0.109375 1.546875,0.109375 2.5625,0.109375 3.125,-1.34375 3.125,-1.421875 3.125,-1.53125 3.046875,-1.53125 3.015625,-1.53125 2.921875,-1.53125 2.90625,-1.5 2.859375,-1.390625 2.4375,-0.34375 1.90625,-0.109375 1.5625,-0.109375 c -0.203125,0 -0.3125,-0.125 -0.3125,-0.453125 0,-0.25 0.03125,-0.3125 0.0625,-0.484375 z m 0,0"
               style="stroke:none"
               inkscape:connector-curvature="0" />
          </symbol>
          <symbol
             id="lx-text3693-glyph1-0"
             overflow="visible"
             style="overflow:visible">
            <path
               id="path1469"
               d=""
               style="stroke:none"
               inkscape:connector-curvature="0" />
          </symbol>
          <symbol
             id="lx-text3693-glyph1-1"
             overflow="visible"
             style="overflow:visible">
            <path
               id="path1472"
               d="M 2.546875,2.5 V 2.09375 h -0.96875 v -9.171875 h 0.96875 v -0.40625 h -1.375 V 2.5 Z m 0,0"
               style="stroke:none"
               inkscape:connector-curvature="0" />
          </symbol>
          <symbol
             id="lx-text3693-glyph1-2"
             overflow="visible"
             style="overflow:visible">
            <path
               id="path1475"
               d="m 2.078125,-1.9375 c 0.21875,0.046875 1.03125,0.203125 1.03125,0.921875 0,0.5 -0.34375,0.90625 -1.125,0.90625 -0.84375,0 -1.203125,-0.5625 -1.390625,-1.421875 C 0.5625,-1.65625 0.5625,-1.6875 0.453125,-1.6875 c -0.125,0 -0.125,0.0625 -0.125,0.234375 V -0.125 c 0,0.171875 0,0.234375 0.109375,0.234375 0.046875,0 0.0625,-0.015625 0.25,-0.203125 0.015625,-0.015625 0.015625,-0.03125 0.203125,-0.21875 0.4375,0.40625 0.890625,0.421875 1.09375,0.421875 1.140625,0 1.609375,-0.671875 1.609375,-1.390625 0,-0.515625 -0.296875,-0.828125 -0.421875,-0.9375 C 2.84375,-2.546875 2.453125,-2.625 2.03125,-2.703125 1.46875,-2.8125 0.8125,-2.9375 0.8125,-3.515625 c 0,-0.359375 0.25,-0.765625 1.109375,-0.765625 1.09375,0 1.15625,0.90625 1.171875,1.203125 0,0.09375 0.09375,0.09375 0.109375,0.09375 0.140625,0 0.140625,-0.046875 0.140625,-0.234375 v -1.015625 c 0,-0.15625 0,-0.234375 -0.109375,-0.234375 -0.046875,0 -0.078125,0 -0.203125,0.125 -0.03125,0.03125 -0.125,0.125 -0.171875,0.15625 -0.375,-0.28125 -0.78125,-0.28125 -0.9375,-0.28125 -1.21875,0 -1.59375,0.671875 -1.59375,1.234375 0,0.34375 0.15625,0.625 0.421875,0.84375 0.328125,0.25 0.609375,0.3125 1.328125,0.453125 z m 0,0"
               style="stroke:none"
               inkscape:connector-curvature="0" />
          </symbol>
          <symbol
             id="lx-text3693-glyph1-3"
             overflow="visible"
             style="overflow:visible">
            <path
               id="path1478"
               d="M 1.578125,-7.484375 H 0.21875 v 0.40625 H 1.1875 V 2.09375 H 0.21875 V 2.5 h 1.359375 z m 0,0"
               style="stroke:none"
               inkscape:connector-curvature="0" />
          </symbol>
        </g>
      </defs>
      <g
         id="lx-text3693-surface1">
        <g
           id="g1487"
           style="fill:#000000;fill-opacity:1">
          <use
             id="use1485"
             y="0"
             x="0"
             xlink:href="#lx-text3693-glyph0-1"
             width="100%"
             height="100%" />
        </g>
        <g
           id="g1495"
           style="fill:#000000;fill-opacity:1">
          <use
             id="use1489"
             y="0"
             x="6.9190001"
             xlink:href="#lx-text3693-glyph1-1"
             width="100%"
             height="100%" />
          <use
             id="use1491"
             y="0"
             x="9.6866102"
             xlink:href="#lx-text3693-glyph1-2"
             width="100%"
             height="100%" />
          <use
             id="use1493"
             y="0"
             x="13.61586"
             xlink:href="#lx-text3693-glyph1-3"
             width="100%"
             height="100%" />
        </g>
      </g>
    </g>
    <g
       id="lx-text3697"
       transform="matrix(0,-0.352778,0.352778,0,4.1639777,44.715961)">
      <defs
         id="defs1528">
        <g
           id="g1526">
          <symbol
             id="lx-text3697-glyph0-0"
             overflow="visible"
             style="overflow:visible">
            <path
               id="path1499"
               d=""
               style="stroke:none"
               inkscape:connector-curvature="0" />
          </symbol>
          <symbol
             id="lx-text3697-glyph0-1"
             overflow="visible"
             style="overflow:visible">
            <path
               id="path1502"
               d="m 4.84375,-3.796875 c 0.046875,-0.140625 0.046875,-0.15625 0.046875,-0.234375 0,-0.171875 -0.140625,-0.265625 -0.296875,-0.265625 -0.09375,0 -0.25,0.0625 -0.34375,0.203125 -0.015625,0.0625 -0.109375,0.359375 -0.140625,0.546875 -0.078125,0.25 -0.140625,0.53125 -0.203125,0.796875 l -0.453125,1.796875 c -0.03125,0.140625 -0.46875,0.84375 -1.125,0.84375 -0.5,0 -0.609375,-0.4375 -0.609375,-0.8125 C 1.71875,-1.375 1.890625,-2 2.21875,-2.875 2.375,-3.28125 2.421875,-3.390625 2.421875,-3.59375 c 0,-0.4375 -0.3125,-0.8125 -0.8125,-0.8125 -0.953125,0 -1.3125,1.453125 -1.3125,1.53125 0,0.109375 0.09375,0.109375 0.109375,0.109375 0.109375,0 0.109375,-0.03125 0.15625,-0.1875 0.28125,-0.9375 0.671875,-1.234375 1.015625,-1.234375 0.078125,0 0.25,0 0.25,0.3125 0,0.25 -0.109375,0.515625 -0.171875,0.703125 -0.40625,1.0625 -0.578125,1.625 -0.578125,2.09375 0,0.890625 0.625,1.1875 1.21875,1.1875 0.390625,0 0.71875,-0.171875 1,-0.453125 -0.125,0.515625 -0.25,1.015625 -0.640625,1.546875 -0.265625,0.328125 -0.640625,0.625 -1.09375,0.625 -0.140625,0 -0.59375,-0.03125 -0.765625,-0.421875 0.15625,0 0.296875,0 0.421875,-0.125 C 1.328125,1.203125 1.421875,1.0625 1.421875,0.875 1.421875,0.5625 1.15625,0.53125 1.0625,0.53125 0.828125,0.53125 0.5,0.6875 0.5,1.171875 c 0,0.5 0.4375,0.875 1.0625,0.875 1.015625,0 2.046875,-0.90625 2.328125,-2.03125 z m 0,0"
               style="stroke:none"
               inkscape:connector-curvature="0" />
          </symbol>
          <symbol
             id="lx-text3697-glyph0-2"
             overflow="visible"
             style="overflow:visible">
            <path
               id="path1505"
               d="m 2.046875,-3.984375 h 0.9375 c 0.203125,0 0.3125,0 0.3125,-0.203125 0,-0.109375 -0.109375,-0.109375 -0.28125,-0.109375 h -0.875 C 2.5,-5.71875 2.546875,-5.90625 2.546875,-5.96875 c 0,-0.171875 -0.125,-0.265625 -0.296875,-0.265625 -0.03125,0 -0.3125,0 -0.390625,0.359375 L 1.46875,-4.296875 h -0.9375 c -0.203125,0 -0.296875,0 -0.296875,0.1875 0,0.125 0.078125,0.125 0.28125,0.125 h 0.875 C 0.671875,-1.15625 0.625,-0.984375 0.625,-0.8125 0.625,-0.265625 1,0.109375 1.546875,0.109375 2.5625,0.109375 3.125,-1.34375 3.125,-1.421875 3.125,-1.53125 3.046875,-1.53125 3.015625,-1.53125 2.921875,-1.53125 2.90625,-1.5 2.859375,-1.390625 2.4375,-0.34375 1.90625,-0.109375 1.5625,-0.109375 c -0.203125,0 -0.3125,-0.125 -0.3125,-0.453125 0,-0.25 0.03125,-0.3125 0.0625,-0.484375 z m 0,0"
               style="stroke:none"
               inkscape:connector-curvature="0" />
          </symbol>
          <symbol
             id="lx-text3697-glyph1-0"
             overflow="visible"
             style="overflow:visible">
            <path
               id="path1508"
               d=""
               style="stroke:none"
               inkscape:connector-curvature="0" />
          </symbol>
          <symbol
             id="lx-text3697-glyph1-1"
             overflow="visible"
             style="overflow:visible">
            <path
               id="path1511"
               d="m 3.296875,2.390625 c 0,-0.03125 0,-0.046875 -0.171875,-0.21875 C 1.890625,0.921875 1.5625,-0.96875 1.5625,-2.5 c 0,-1.734375 0.375,-3.46875 1.609375,-4.703125 0.125,-0.125 0.125,-0.140625 0.125,-0.171875 0,-0.078125 -0.03125,-0.109375 -0.09375,-0.109375 -0.109375,0 -1,0.6875 -1.59375,1.953125 -0.5,1.09375 -0.625,2.203125 -0.625,3.03125 0,0.78125 0.109375,1.984375 0.65625,3.125 C 2.25,1.84375 3.09375,2.5 3.203125,2.5 c 0.0625,0 0.09375,-0.03125 0.09375,-0.109375 z m 0,0"
               style="stroke:none"
               inkscape:connector-curvature="0" />
          </symbol>
          <symbol
             id="lx-text3697-glyph1-2"
             overflow="visible"
             style="overflow:visible">
            <path
               id="path1514"
               d="m 2.875,-2.5 c 0,-0.765625 -0.109375,-1.96875 -0.65625,-3.109375 -0.59375,-1.21875 -1.453125,-1.875 -1.546875,-1.875 -0.0625,0 -0.109375,0.046875 -0.109375,0.109375 0,0.03125 0,0.046875 0.1875,0.234375 0.984375,0.984375 1.546875,2.5625 1.546875,4.640625 0,1.71875 -0.359375,3.46875 -1.59375,4.71875 C 0.5625,2.34375 0.5625,2.359375 0.5625,2.390625 0.5625,2.453125 0.609375,2.5 0.671875,2.5 0.765625,2.5 1.671875,1.8125 2.25,0.546875 2.765625,-0.546875 2.875,-1.65625 2.875,-2.5 Z m 0,0"
               style="stroke:none"
               inkscape:connector-curvature="0" />
          </symbol>
          <symbol
             id="lx-text3697-glyph1-3"
             overflow="visible"
             style="overflow:visible">
            <path
               id="path1517"
               d="M 2.546875,2.5 V 2.09375 h -0.96875 v -9.171875 h 0.96875 v -0.40625 h -1.375 V 2.5 Z m 0,0"
               style="stroke:none"
               inkscape:connector-curvature="0" />
          </symbol>
          <symbol
             id="lx-text3697-glyph1-4"
             overflow="visible"
             style="overflow:visible">
            <path
               id="path1520"
               d="M 9.0625,-5.828125 C 9.234375,-6.40625 9.671875,-6.5 10.0625,-6.5 v -0.3125 c -0.296875,0.03125 -0.609375,0.03125 -0.90625,0.03125 -0.296875,0 -0.9375,-0.015625 -1.1875,-0.03125 V -6.5 c 0.671875,0.015625 0.859375,0.34375 0.859375,0.53125 0,0.0625 -0.03125,0.140625 -0.046875,0.203125 l -1.5,4.59375 -1.59375,-4.875 C 5.6875,-6.09375 5.65625,-6.15625 5.65625,-6.203125 5.65625,-6.5 6.234375,-6.5 6.5,-6.5 v -0.3125 c -0.359375,0.03125 -1.03125,0.03125 -1.421875,0.03125 -0.375,0 -0.796875,-0.015625 -1.203125,-0.03125 V -6.5 c 0.5625,0 0.765625,0 0.890625,0.359375 L 4.984375,-5.4375 3.59375,-1.171875 2,-6.078125 C 1.984375,-6.09375 1.96875,-6.171875 1.96875,-6.203125 1.96875,-6.5 2.546875,-6.5 2.8125,-6.5 v -0.3125 c -0.359375,0.03125 -1.03125,0.03125 -1.421875,0.03125 -0.375,0 -0.796875,-0.015625 -1.21875,-0.03125 V -6.5 c 0.75,0 0.796875,0.046875 0.921875,0.421875 L 3.078125,0.03125 c 0.03125,0.09375 0.0625,0.1875 0.1875,0.1875 0.140625,0 0.15625,-0.0625 0.203125,-0.203125 l 1.640625,-5.0625 1.65625,5.078125 c 0.03125,0.09375 0.0625,0.1875 0.1875,0.1875 0.140625,0 0.171875,-0.0625 0.203125,-0.203125 z m 0,0"
               style="stroke:none"
               inkscape:connector-curvature="0" />
          </symbol>
          <symbol
             id="lx-text3697-glyph1-5"
             overflow="visible"
             style="overflow:visible">
            <path
               id="path1523"
               d="M 1.578125,-7.484375 H 0.21875 v 0.40625 H 1.1875 V 2.09375 H 0.21875 V 2.5 h 1.359375 z m 0,0"
               style="stroke:none"
               inkscape:connector-curvature="0" />
          </symbol>
        </g>
      </defs>
      <g
         id="lx-text3697-surface1">
        <g
           id="g1532"
           style="fill:#000000;fill-opacity:1">
          <use
             id="use1530"
             y="0"
             x="0"
             xlink:href="#lx-text3697-glyph0-1"
             width="100%"
             height="100%" />
        </g>
        <g
           id="g1536"
           style="fill:#000000;fill-opacity:1">
          <use
             id="use1534"
             y="0"
             x="5.2420001"
             xlink:href="#lx-text3697-glyph1-1"
             width="100%"
             height="100%" />
        </g>
        <g
           id="g1540"
           style="fill:#000000;fill-opacity:1">
          <use
             id="use1538"
             y="0"
             x="9.1160002"
             xlink:href="#lx-text3697-glyph0-2"
             width="100%"
             height="100%" />
        </g>
        <g
           id="g1544"
           style="fill:#000000;fill-opacity:1">
          <use
             id="use1542"
             y="0"
             x="12.714"
             xlink:href="#lx-text3697-glyph1-2"
             width="100%"
             height="100%" />
        </g>
        <g
           id="g1552"
           style="fill:#000000;fill-opacity:1">
          <use
             id="use1546"
             y="0"
             x="19.906"
             xlink:href="#lx-text3697-glyph1-3"
             width="100%"
             height="100%" />
          <use
             id="use1548"
             y="0"
             x="22.673611"
             xlink:href="#lx-text3697-glyph1-4"
             width="100%"
             height="100%" />
          <use
             id="use1550"
             y="0"
             x="32.913174"
             xlink:href="#lx-text3697-glyph1-5"
             width="100%"
             height="100%" />
        </g>
      </g>
    </g>
    <g
       id="lx-text1050"
       transform="matrix(0.352778,0,0,0.352778,14.352946,58.450549)">
      <defs
         id="defs1570">
        <g
           id="g1568">
          <symbol
             id="lx-text1050-glyph0-0"
             overflow="visible"
             style="overflow:visible">
            <path
               id="path1556"
               d=""
               style="stroke:none"
               inkscape:connector-curvature="0" />
          </symbol>
          <symbol
             id="lx-text1050-glyph0-1"
             overflow="visible"
             style="overflow:visible">
            <path
               id="path1559"
               d="m 4.25,-6.046875 c 0.078125,-0.28125 0.109375,-0.34375 0.234375,-0.375 0.09375,-0.015625 0.421875,-0.015625 0.625,-0.015625 1.015625,0 1.453125,0.03125 1.453125,0.8125 0,0.15625 -0.03125,0.546875 -0.078125,0.796875 0,0.046875 -0.03125,0.15625 -0.03125,0.1875 0,0.0625 0.03125,0.140625 0.125,0.140625 0.109375,0 0.125,-0.078125 0.15625,-0.234375 L 7,-6.46875 C 7.015625,-6.515625 7.015625,-6.609375 7.015625,-6.640625 7.015625,-6.75 6.921875,-6.75 6.75,-6.75 H 1.21875 c -0.234375,0 -0.25,0.015625 -0.328125,0.203125 l -0.59375,1.75 c 0,0.015625 -0.0625,0.15625 -0.0625,0.1875 0,0.046875 0.0625,0.109375 0.125,0.109375 0.09375,0 0.109375,-0.0625 0.171875,-0.21875 C 1.0625,-6.265625 1.328125,-6.4375 2.796875,-6.4375 H 3.1875 c 0.28125,0 0.28125,0.03125 0.28125,0.125 0,0.046875 -0.03125,0.171875 -0.046875,0.203125 L 2.09375,-0.78125 C 2,-0.421875 1.96875,-0.3125 0.90625,-0.3125 c -0.359375,0 -0.421875,0 -0.421875,0.1875 C 0.484375,0 0.59375,0 0.65625,0 c 0.265625,0 0.546875,-0.015625 0.8125,-0.015625 0.28125,0 0.578125,-0.015625 0.859375,-0.015625 0.28125,0 0.546875,0.015625 0.828125,0.015625 C 3.4375,-0.015625 3.734375,0 4.015625,0 c 0.09375,0 0.21875,0 0.21875,-0.203125 0,-0.109375 -0.078125,-0.109375 -0.34375,-0.109375 -0.234375,0 -0.375,0 -0.625,-0.015625 -0.296875,-0.03125 -0.375,-0.0625 -0.375,-0.21875 0,-0.015625 0,-0.0625 0.046875,-0.203125 z m 0,0"
               style="stroke:none"
               inkscape:connector-curvature="0" />
          </symbol>
          <symbol
             id="lx-text1050-glyph1-0"
             overflow="visible"
             style="overflow:visible">
            <path
               id="path1562"
               d=""
               style="stroke:none"
               inkscape:connector-curvature="0" />
          </symbol>
          <symbol
             id="lx-text1050-glyph1-1"
             overflow="visible"
             style="overflow:visible">
            <path
               id="path1565"
               d="m 3,-2.625 c -0.171875,0.046875 -0.296875,0.1875 -0.296875,0.328125 0,0.171875 0.140625,0.234375 0.234375,0.234375 0.078125,0 0.34375,-0.046875 0.34375,-0.40625 0,-0.453125 -0.5,-0.609375 -0.9375,-0.609375 -1.078125,0 -1.28125,0.8125 -1.28125,1.015625 0,0.265625 0.15625,0.4375 0.25,0.515625 0.171875,0.140625 0.296875,0.171875 0.78125,0.25 0.15625,0.03125 0.59375,0.109375 0.59375,0.453125 0,0.125 -0.078125,0.390625 -0.359375,0.5625 C 2.046875,-0.125 1.703125,-0.125 1.625,-0.125 1.34375,-0.125 0.953125,-0.1875 0.78125,-0.421875 1.015625,-0.453125 1.171875,-0.625 1.171875,-0.8125 c 0,-0.171875 -0.125,-0.265625 -0.265625,-0.265625 -0.203125,0 -0.40625,0.171875 -0.40625,0.46875 0,0.421875 0.4375,0.671875 1.109375,0.671875 1.296875,0 1.53125,-0.875 1.53125,-1.140625 0,-0.640625 -0.703125,-0.765625 -0.96875,-0.8125 -0.0625,-0.015625 -0.234375,-0.046875 -0.28125,-0.0625 -0.25,-0.046875 -0.375,-0.1875 -0.375,-0.34375 0,-0.15625 0.125,-0.34375 0.28125,-0.453125 0.1875,-0.109375 0.421875,-0.125 0.546875,-0.125 0.140625,0 0.5,0.015625 0.65625,0.25 z m 0,0"
               style="stroke:none"
               inkscape:connector-curvature="0" />
          </symbol>
        </g>
      </defs>
      <g
         id="lx-text1050-surface1">
        <g
           id="g1574"
           style="fill:#000000;fill-opacity:1">
          <use
             id="use1572"
             y="0"
             x="0"
             xlink:href="#lx-text1050-glyph0-1"
             width="100%"
             height="100%" />
        </g>
        <g
           id="g1578"
           style="fill:#000000;fill-opacity:1">
          <use
             id="use1576"
             y="1.495"
             x="5.822"
             xlink:href="#lx-text1050-glyph1-1"
             width="100%"
             height="100%" />
        </g>
      </g>
    </g>
  </g>
</svg>
